<?xml version="1.0" encoding="iso-8859-1"?>
<!-- Generator: Adobe Illustrator 19.0.0, SVG Export Plug-In . SVG Version: 6.00 Build 0)  -->
<svg version="1.1" id="Capa_1" xmlns="http://www.w3.org/2000/svg" xmlns:xlink="http://www.w3.org/1999/xlink" x="0px" y="0px"
	 viewBox="0 0 512.001 512.001" style="enable-background:new 0 0 512.001 512.001;" xml:space="preserve">
<g>
	<path style="fill:#00539E;" d="M255.913,376.001c137.205,0,248.587-53.746,248.587-120.124
		c0-66.129-111.382-119.876-248.587-119.876C118.538,136.001,7.5,189.748,7.5,255.877C7.5,322.255,118.538,376.001,255.913,376.001
		L255.913,376.001L255.913,376.001L255.913,376.001z"/>
	<path style="fill:#004380;" d="M255.914,136.001c-4.195,0-8.364,0.052-12.507,0.151C374.815,139.296,479.5,191.767,479.5,255.877
		c0,64.351-104.685,116.828-236.094,119.973c4.143,0.099,8.312,0.151,12.507,0.151c137.205,0,248.587-53.746,248.587-120.124
		C504.5,189.748,393.118,136.001,255.914,136.001z"/>
	<g>
		<path style="fill:#FFFFFF;" d="M208.967,321.036c-10.942-0.041-19.913-5.439-24.063-13.964c-1.831,1.339-4.067,2.768-6.666,4.252
			l-0.102,0.058l-0.459,0.236c-1.576,0.824-3.007,1.507-4.547,1.502c-0.929-0.003-1.81-0.267-2.547-0.764l-0.229-0.154l-0.206-0.183
			c-2.323-2.081-3.922-4.879-4.277-7.485l-0.919-6.756l4.738,1.862c0.575-0.43,1.327-1.018,2.105-1.624l1.233-0.959
			c6.24-4.693,7.78-8.287,7.795-8.323l0.071-0.194l0.06-0.106c1.453-2.984,3.706-7.255,5.694-11.023l1.644-3.122
			c8.689-17.122,21.528-26.456,37.104-26.945l0.141-0.002c4.154,0.015,6.15,1.918,7.283,3.595c0.215,0.212,4.673-2.95,7.578-2.94
			c1.068,0.004,3.291,0.012,5.256,1.994c3.851,3.88,6.081,9.85,6.93,15.312c7.264-8.474,14.924-16.361,21.906-18.694
			c2.352-1.099,4.526-1.101,6.294-1.095c0.235-0.005,0.466-0.007,0.693-0.006c5.63,0.021,9.962,1.757,12.875,5.159
			c0.979,1.143,1.7,2.368,2.226,3.589c5.196-4.751,10.547-7.648,17.233-7.623c0.476,0.002,0.959,0.018,1.447,0.048
			c10.019,0.536,14.57,7.882,14.546,14.479l-0.004,0.153c-0.307,7.317-5.839,15.024-14.565,15.256l-0.121,0.002
			c-5.433-0.02-9.658-2.091-12.449-6.048c-0.446,0.854-0.811,2.057-1.086,3.807l-0.018,0.103
			c21.873,12.906,28.807-5.344,31.271-7.905c9.563-9.936,18.596-19.321,35.65-19.258l0.474,0.004
			c9.223,0.189,14.163,4.997,17.029,9.474l23.589-39.487l24.996,0.093c0,0-48.219,84.776-48.566,85.723
			c3.992-0.957,9.368-7.163,21.749-20.076c0,0,4-5,8.869-3.388c2.889,0.956,6.424,2.488,6.411,6.024
			c-0.011,2.938-14.28,35.402-43.653,35.398l-0.105,0.001c-6.654-0.025-11.025-2.193-13.41-6.742
			c-6.012,3.097-15.445,6.037-24.782,6.002c-9.268-0.222-15.804-4.624-19.508-13.086c-1.454-3.126-2.208-6.861-2.213-10.674
			c-3.265,0.798-6.537,1.003-10.11,0.99c-0.957-0.004-1.951-0.024-2.99-0.057c-7.527-0.207-13.012-3.094-16.582-8.776l-1.214,2.2
			c-5.143,9.316-7.068,12.802-14.835,27.236l-1.137,2.114l-26.46-0.098l23.969-41.142c2.08-8.195-11.192,3.035-21.626,15.456
			C240.331,304.033,228.792,321.11,208.967,321.036z M210.629,295.906c15.187,0,20.739-19.602,18.24-21.708
			c-5.655-4.765-19.361-0.905-22.208,13.709C205.843,292.104,207.607,295.179,210.629,295.906z M349.35,278.985
			c-3.34,3.132-6.312,10.201-4.857,14.142c0.538,1.457,10.215,5.915,19.003-5.235c2.743-3.48,4.854-8.647,3.669-12.346
			C366.61,273.811,359.799,269.189,349.35,278.985z"/>
		<path style="fill:#FFFFFF;" d="M126.629,240.266c-5.685,0-11.066-2.293-15.152-6.456c-4.56-4.647-7.208-11.356-7.084-17.947
			c0.116-11.454,6.319-21.842,17.465-29.216c12.552-8.304,35.625-22.424,86.002-15.424c15.772,2.192,51.669,16,106.447,10.881
			c1.77-0.165,2.491-0.562,4.951-0.562c3.558,0,7.8,1.222,7.8,7.04c0,10.254-25.824,21.667-43.324,21.667
			c-20.804,0-41.874-7.04-57.258-12.182c-5.825-1.946-10.855-3.627-14.478-4.443c-13.927-3.256-27.25-6.172-37.497-6.172
			c-26.471,0-38.262,8.262-42.935,13.187c-3.71,3.91-5.547,8.34-5.312,12.81c0.197,3.055,2.183,4.834,5.445,4.834
			c0.623,0,1.287-0.065,1.975-0.196c6.555-1.146,15.925-7.657,17.958-12.449c0.98-2.284,3.196-3.788,5.652-3.75
			c5.505,0.086,5.782,5.307,5.386,7.186C161.375,217.886,148.632,240.266,126.629,240.266z"/>
		<path style="fill:#FFFFFF;" d="M114.923,318.537c-21.658,0-37.075-14.806-37.49-36.006c-0.119-7.358,2.835-15.3,8.105-21.805
			c5.843-7.212,13.991-12.277,23.561-14.643l0.499-0.124h0.514c4.992,0,7.227,3.126,7.227,6.224c0,1.26-0.498,4.413-5.113,6.462
			l-0.123,0.055l-0.126,0.046c-3.602,1.333-12.076,10.391-12.076,18.491c0,5.512,3.424,12.004,9.155,13.325l0.163,0.041
			c24.949,5.201,38.061-14.652,60.895-45.252c-5.329,0.991-10.395,2.465-11.72,3.988c0,0-3.413,2.174-4.886,2.174
			c-2.774,0-5.051-1.931-5.799-4.92l-0.127-0.505v-0.52c0-1.985,1.484-4.388,2.057-5.147l0.102-0.136l0.112-0.127
			c6.049-6.807,19.657-9.237,30.963-10.574c16.333-24.829,21.02-26.884,25.046-26.884c1.082,0,1.931,0.236,2.619,0.467l0.429,0.143
			c2.404,0.804,11.092,5.688-0.705,21.354c2.137-0.296,7.517-0.667,8.797-2.167c2.907-15.91,21.094-20.238,26.207-3.589
			c2.126,6.923-2.798,11.243-6.964,14.247c-9.812,7.076-26.91,9.343-35.41,11.176C162.017,306.983,141.844,318.537,114.923,318.537z
			"/>
	</g>
</g>
<path d="M365.629,265.946c-3.902-1.013-11.872-1.374-21.408,7.566l0,0c-4.661,4.37-9.604,14.521-6.762,22.213
	c1.888,5.111,8.178,6.48,10.062,6.778c0.762,0.12,1.766,0.226,2.955,0.226c4.659,0,12.146-1.61,18.913-10.195
	c3.814-4.839,7.109-12.444,4.92-19.277C373.217,269.854,369.892,267.052,365.629,265.946z M357.607,283.25
	c-1.897,2.406-3.63,3.565-5.022,4.092c0.529-1.141,1.213-2.246,1.895-2.886c1.781-1.669,3.28-2.678,4.461-3.269
	C358.59,281.857,358.148,282.563,357.607,283.25z"/>
<path d="M409.602,209.761c-0.009,0-0.018,0-0.027,0c-2.639,0-5.084,1.388-6.438,3.653l-18.593,31.123
	c-4.377-3.021-9.606-4.643-15.524-4.764l-0.508-0.004c-14.812-0.088-24.671,6.05-32.727,13.294
	c-2.838-7.273-9.616-13.31-20.061-13.868c-0.634-0.04-1.262-0.061-1.884-0.063c-0.039,0-0.076,0-0.115,0
	c-5.573,0-10.692,1.481-15.704,4.594c-3.309-2.924-8.542-5.689-16.51-5.719c-0.261,0.001-0.521,0.001-0.786,0.006
	c-2.036-0.02-5.324,0.005-9.002,1.616c-5.59,1.977-10.976,6.192-16.125,11.295c-1.208-2.173-2.721-4.306-4.615-6.214
	c-4.154-4.19-8.972-4.208-10.554-4.214c-0.652,0-1.289,0.057-1.916,0.151c0.728-0.451,1.44-0.916,2.121-1.407
	c3.375-2.434,13.646-9.837,9.748-22.532c-0.44-1.433-0.959-2.741-1.531-3.954c10.94,2.827,22.865,4.995,34.884,4.995
	c17.451,0,50.824-11.358,50.824-29.167c0-8.833-6.005-14.54-15.3-14.54c-2.222,0-3.603,0.251-4.611,0.435
	c-0.424,0.077-0.704,0.128-1.038,0.159c-13.976,1.307-28.014,1.443-41.723,0.403c-4.137-0.313-7.732,2.781-8.045,6.912
	c-0.313,4.13,2.782,7.732,6.912,8.045c14.547,1.102,29.437,0.958,44.25-0.425c0.984-0.092,1.73-0.228,2.33-0.337
	c0.692-0.126,1.045-0.19,1.882-0.192c-0.997,1.452-4.166,4.63-11.806,8.062c-7.754,3.482-16.826,5.646-23.676,5.646
	c-19.589,0-39.987-6.817-54.881-11.795c-6.018-2.011-11.214-3.747-15.147-4.633c-14.357-3.356-28.158-6.369-39.204-6.369
	c-29.274,0-42.875,9.727-48.376,15.524c-5.161,5.439-7.707,11.791-7.355,18.455c0.451,6.978,5.767,11.851,12.929,11.851
	c1.077,0,2.194-0.106,3.32-0.317c4.832-0.859,11.002-3.886,15.924-7.812c-4.677,7.193-12.983,15.112-24.314,15.112
	c-3.655,0-7.135-1.495-9.798-4.209c-3.132-3.192-5.025-8.002-4.938-12.618c0.09-8.898,5.099-17.08,14.104-23.037
	c10.333-6.836,31.833-21.063,80.831-14.25c3.216,0.447,7.789,1.531,13.084,2.787c5.453,1.293,11.633,2.758,18.864,4.174
	c4.067,0.79,8.005-1.854,8.801-5.92c0.795-4.064-1.854-8.005-5.919-8.801c-6.941-1.358-12.968-2.788-18.285-4.049
	c-5.899-1.398-10.559-2.504-14.48-3.049c-54.61-7.583-79.304,8.747-91.172,16.598c-13.288,8.791-20.684,21.361-20.825,35.329
	c-0.161,8.562,3.289,17.287,9.23,23.343c0.014,0.014,0.028,0.027,0.042,0.041c-10.68,2.877-19.812,8.698-26.456,16.9
	c-6.36,7.852-9.923,17.563-9.776,26.672c0.492,25.125,19.413,43.36,44.989,43.36c15.558,0,29.152-3.407,44.595-16.478
	c1.16,2.965,3.095,5.777,5.641,8.058l0.206,0.184c0.252,0.225,0.519,0.432,0.798,0.62l0.231,0.156
	c1.973,1.328,4.294,2.034,6.707,2.042c0.016,0,0.031,0,0.047,0c3.499,0,6.316-1.473,7.964-2.334l0.458-0.237
	c0.084-0.043,0.168-0.088,0.251-0.135l0.133-0.076c0.297-0.169,0.59-0.339,0.88-0.508c6.25,7.018,15.654,11.169,26.102,11.207
	c0.055,0,0.107,0,0.162,0c13.526-0.001,23.614-6.374,31.339-13.691l-0.887,1.521c-1.349,2.315-1.36,5.175-0.029,7.501
	c1.331,2.325,3.802,3.765,6.481,3.774l26.46,0.098c0.009,0,0.019,0,0.028,0c2.759,0,5.296-1.515,6.604-3.946l1.137-2.113
	c5.726-10.64,8.268-15.315,11.275-20.78c4.087,2.53,8.976,3.911,14.512,4.063c1.111,0.035,2.175,0.058,3.203,0.062
	c1.106,0.006,2.333-0.009,3.651-0.071c0.466,1.873,1.089,3.665,1.862,5.34c4.913,11.156,13.958,17.207,26.165,17.499
	c0.05,0.001,0.101,0.002,0.151,0.002c7.323,0.021,15.449-1.554,22.656-4.335c3.301,2.835,8.226,5.048,15.564,5.075h0.104
	c0.002,0,0.004,0,0.006,0c14.474-0.001,27.801-6.648,38.536-19.227c6.818-7.988,12.594-18.816,12.611-23.644
	c0.016-4.26-1.976-10.002-11.553-13.172c-2.42-0.8-4.727-0.864-6.842-0.469c9.243-16.292,20.161-35.506,28.951-50.962
	c1.318-2.317,1.307-5.16-0.029-7.467c-1.336-2.308-3.796-3.731-6.462-3.741L409.602,209.761z M144.735,202.691
	c-0.918,1.933-6.294,6-10.563,7.518c0.617-1.777,1.786-3.303,2.834-4.408c1.442-1.52,4.351-3.979,9.531-6.172
	C145.822,200.551,145.213,201.577,144.735,202.691z M220.604,204.018c-0.106,0.068-0.216,0.129-0.321,0.199
	c-0.062-0.131-0.139-0.246-0.203-0.373C220.251,203.9,220.431,203.96,220.604,204.018z M174.501,194.952
	c6.259,0,14.025,1.244,22.484,3c-4.971,3.335-10.991,10.382-20.518,24.623c-4.152,0.56-8.359,1.279-12.388,2.282
	c3.383-5.478,5.394-10.801,5.98-14.489c0.599-3.166,0.206-7.724-2.666-11.319c-1.202-1.506-2.718-2.674-4.461-3.465
	C166.368,195.184,170.209,194.952,174.501,194.952z M126.629,247.766c4.89,0,9.375-0.877,13.46-2.367
	c-0.001,0.057-0.007,0.113-0.007,0.17v0.521c0,0.614,0.076,1.227,0.225,1.822l0.126,0.505c1.34,5.352,5.294,9.22,10.243,10.296
	c-15.124,19.433-24.727,27.654-39.78,24.578l-0.004-0.001c-0.049-0.012-0.099-0.024-0.148-0.035c-1.686-0.39-3.341-3.37-3.341-6.018
	c0-4.157,5.206-10.282,7.354-11.521c0.136-0.052,0.271-0.107,0.404-0.167l0.111-0.049c8.878-3.944,9.568-11.19,9.568-13.317
	c0-1.536-0.271-3.073-0.779-4.538C124.911,247.721,125.766,247.766,126.629,247.766z M114.923,311.037
	c-17.604,0-29.656-11.515-29.991-28.628c-0.091-5.62,2.254-11.803,6.434-16.963c3.01-3.715,6.784-6.743,11.142-8.971
	c-5.096,4.9-10.105,12.702-10.105,20.762c0,8.304,5.215,18.331,14.883,20.613l0.1,0.025c0.101,0.025,0.202,0.049,0.304,0.069
	c3.282,0.685,6.385,1.012,9.347,1.012c22.581-0.002,36.737-19.047,55.49-44.282c1.174-1.58,2.373-3.193,3.6-4.838
	c1.846-2.475,1.987-5.828,0.356-8.449c-0.893-1.434-2.215-2.487-3.728-3.057c3.703-0.678,7.032-1.071,8.943-1.297
	c2.198-0.26,4.169-1.478,5.385-3.326c13.533-20.574,17.711-23.198,18.613-23.501c0.057-0.007,0.113-0.005,0.134-0.008
	c0.01,0.002,0.069,0.014,0.288,0.087l0.346,0.115c0.09,0.045,0.208,0.133,0.238,0.176c0.01,0.022,0.723,2.658-4.487,9.577
	c-1.823,2.421-2.01,5.7-0.474,8.313s4.492,4.046,7.494,3.628c0.293-0.04,0.657-0.081,1.065-0.129
	c5.153-0.599,9.643-1.357,12.409-4.598c0.858-1.006,1.436-2.221,1.673-3.521c0.925-5.064,4.062-7.87,6.681-8.024
	c2.862-0.175,4.35,3.241,4.979,5.29c0.347,1.131,0.741,2.412-4.182,5.961c-6.857,4.945-19.355,7.348-27.625,8.937
	c-1.852,0.355-3.536,0.681-4.98,0.992c-1.99,0.43-3.721,1.649-4.793,3.381C157.232,300.465,139.151,311.037,114.923,311.037z
	 M378.963,300.492c-0.953,2.596-0.4,5.504,1.438,7.569c1.838,2.066,4.664,2.954,7.351,2.308c5.563-1.333,9.913-5.903,20.42-16.945
	c1.527-1.604,3.186-3.348,4.995-5.234c0.155-0.162,0.303-0.33,0.442-0.505c0.061-0.076,0.625-0.593,1.042-0.822
	c0.021,0.007,0.041,0.015,0.061,0.021c-3.367,7.397-15.255,26.649-35.332,26.649h-0.078c-5.377-0.02-6.299-1.779-6.794-2.724
	c-1.914-3.652-6.414-5.074-10.078-3.186c-4.64,2.391-12.956,5.169-21.181,5.169c-0.021,0-0.041,0-0.061,0
	c-6.285-0.17-10.216-2.822-12.742-8.593c-0.022-0.053-0.046-0.104-0.07-0.155c-0.973-2.092-1.51-4.763-1.514-7.521
	c-0.003-2.301-1.062-4.474-2.873-5.894c-1.812-1.419-4.174-1.93-6.409-1.382c-2.273,0.557-4.766,0.796-8.297,0.775
	c-0.89-0.004-1.815-0.022-2.815-0.055c-6.427-0.176-8.954-2.908-10.438-5.27c-1.413-2.249-3.904-3.587-6.563-3.507
	c-2.654,0.075-5.071,1.549-6.354,3.874l-1.213,2.198c-4.93,8.93-6.912,12.519-13.878,25.458l-8.967-0.033l17.428-29.915
	c0.352-0.604,0.617-1.253,0.789-1.93c1.937-7.63-3.14-10.669-4.177-11.2c-5.534-2.837-11.311,1.12-16.728,5.817
	c-4.282,3.712-9.288,8.877-13.733,14.17c-0.867,1.032-1.773,2.148-2.725,3.32c-7.447,9.174-16.708,20.585-30.816,20.584
	c-0.032,0-0.066,0-0.098,0l0,0c-7.905-0.029-14.391-3.673-17.348-9.747c-0.972-1.997-2.781-3.461-4.937-3.996
	c-0.597-0.148-1.203-0.221-1.806-0.221c-1.576,0-3.129,0.497-4.427,1.446c-0.772,0.564-1.632,1.149-2.569,1.75
	c7.196-5.511,9.418-10.14,9.844-11.162c1.386-2.839,3.55-6.943,5.463-10.569l1.714-3.254c0.018-0.033,0.035-0.067,0.052-0.102
	c7.474-14.729,17.764-22.412,30.586-22.841c0.642,0.008,0.91,0.162,0.896,0.108c0.01,0.011,0.058,0.06,0.145,0.188
	c0.275,0.407,0.59,0.787,0.94,1.133c2.678,2.648,6.089,2.87,10.135,0.659c0.594-0.325,2.08-1.137,2.893-1.4
	c2.188,2.364,3.897,6.412,4.598,10.925c0.45,2.894,2.542,5.261,5.358,6.063c2.815,0.8,5.841-0.109,7.747-2.333
	c3.368-3.929,12.313-14.364,18.589-16.462c0.271-0.091,0.537-0.197,0.796-0.318c0.81-0.379,1.701-0.397,3.095-0.39
	c0.062,0.005,0.121,0,0.181-0.002c0.171-0.004,0.339-0.006,0.51-0.004c5.049,0.019,6.672,1.914,7.208,2.539
	c0.415,0.484,0.762,1.048,1.032,1.675c0.959,2.229,2.939,3.856,5.312,4.366c2.374,0.514,4.847-0.158,6.638-1.797
	c4.335-3.964,7.954-5.658,12.086-5.658c0.344-0.001,0.705,0.012,1.132,0.038c6.983,0.374,7.437,5.671,7.447,6.898
	c-0.166,3.181-2.568,7.878-7.19,8.001l-0.039,0.001c-3.792-0.032-5.348-1.55-6.279-2.871c-1.507-2.138-4.023-3.332-6.629-3.161
	c-2.61,0.174-4.94,1.695-6.15,4.015c-0.856,1.641-1.44,3.563-1.835,6.044l-0.008,0.046c-0.537,3.075,0.888,6.162,3.577,7.748
	c10.362,6.115,19.716,7.26,27.803,3.401c6.622-3.158,10.279-8.786,12.243-11.811c0.238-0.365,0.438-0.687,0.616-0.936
	c9.033-9.385,16.233-16.777,29.868-16.777c0.046,0,0.094,0.001,0.141,0.001l0.382,0.002c4.915,0.102,8.267,1.957,10.866,6.019
	c1.401,2.189,3.828,3.53,6.433,3.456c2.598-0.04,4.99-1.422,6.323-3.652l21.397-35.817l7.883,0.029
	C379.501,299.028,379.227,299.773,378.963,300.492z"/>
<path d="M233.702,268.463c-4.507-3.798-11.331-4.737-17.807-2.455c-8.478,2.99-14.682,10.641-16.595,20.465
	c-1.556,7.981,2.471,15.016,9.575,16.726c0.575,0.138,1.164,0.208,1.755,0.208c13.08,0,21.335-9.848,24.699-19.064
	C236.841,280.197,238.641,272.623,233.702,268.463z M217.406,285.397c-0.929,0.938-1.903,1.654-2.936,2.151
	c1.484-4.793,4.542-6.604,5.893-7.189c0.168-0.073,0.333-0.138,0.493-0.194C220.122,281.862,218.993,283.792,217.406,285.397z"/>
<path d="M464.647,181.562c-3.399-2.364-8.073-1.527-10.44,1.873c-2.366,3.399-1.527,8.074,1.873,10.439
	c18.667,12.989,40.92,34.29,40.92,62.003c0,29.06-24.364,56.832-68.604,78.2c-45.958,22.198-107.213,34.424-172.482,34.424
	c-38.744,0-75.755-4.232-110.005-12.581c-4.025-0.985-8.082,1.487-9.063,5.511s1.486,8.082,5.511,9.063
	c35.412,8.631,73.617,13.007,113.557,13.007c67.482,0,131.055-12.756,179.007-35.917c49.706-24.009,77.08-56.577,77.08-91.707
	C512,228.814,495.625,203.116,464.647,181.562z"/>
<path d="M116.244,347.36C52.848,325.972,15,291.772,15,255.877c0-28.966,24.311-56.661,68.453-77.983
	c45.917-22.179,107.164-34.393,172.46-34.393c65.08,0,126.228,12.162,172.177,34.246c3.734,1.798,8.215,0.222,10.009-3.511
	s0.222-8.215-3.511-10.009c-47.936-23.038-111.39-35.726-178.674-35.726c-67.51,0-131.075,12.745-178.985,35.886
	C27.321,188.349,0,220.841,0,255.877c0,21.868,10.896,43.315,31.511,62.023c19.167,17.394,46.809,32.496,79.938,43.673
	c0.795,0.269,1.603,0.396,2.398,0.396c3.129,0,6.05-1.975,7.105-5.104C122.277,352.939,120.168,348.685,116.244,347.36z"/>
<g>
</g>
<g>
</g>
<g>
</g>
<g>
</g>
<g>
</g>
<g>
</g>
<g>
</g>
<g>
</g>
<g>
</g>
<g>
</g>
<g>
</g>
<g>
</g>
<g>
</g>
<g>
</g>
<g>
</g>
</svg>
