<?xml version="1.0" encoding="iso-8859-1"?>
<!-- Generator: Adobe Illustrator 19.0.0, SVG Export Plug-In . SVG Version: 6.00 Build 0)  -->
<svg version="1.1" id="Capa_1" xmlns="http://www.w3.org/2000/svg" xmlns:xlink="http://www.w3.org/1999/xlink" x="0px" y="0px"
	 viewBox="0 0 512 512" style="enable-background:new 0 0 512 512;" xml:space="preserve">
<path style="fill:#CCCCCC;" d="M256,123C118.76,123,7.5,182.549,7.5,256.004S118.76,388.998,256,388.998s248.5-59.539,248.5-132.994
	S393.24,123,256,123z M417.55,323.625c-33.77,18.082-76.77,29.72-123.74,33.786c-7.35,0.639-14.8,1.089-22.32,1.339
	c-5.13,0.19-10.29,0.28-15.49,0.28c-50.06,0-97.37-8.321-136.24-23.726c-6.09-2.407-11.98-4.995-17.63-7.752
	c-2.61-1.279-5.17-2.587-7.68-3.926c-36.19-19.37-56.95-44.015-56.95-67.621s20.76-48.261,56.95-67.631
	c32.23-17.242,72.86-28.641,117.33-33.176c7.24-0.749,14.58-1.299,22-1.668c7.33-0.37,14.75-0.559,22.22-0.559
	c48.75,0,94.89,7.902,133.17,22.527c5.91,2.258,11.62,4.675,17.13,7.253c3.85,1.798,7.61,3.676,11.25,5.624
	c36.19,19.37,56.95,44.025,56.95,67.631C474.5,279.61,453.74,304.255,417.55,323.625z"/>
<g>
	<path style="fill:#E3E3E3;" d="M417.55,323.625c-33.77,18.082-76.77,29.72-123.74,33.786c-7.35,0.639-14.8,1.089-22.32,1.339
		c-2.297,0.085-4.603,0.143-6.914,0.189c2.897,0.056,5.802,0.091,8.719,0.091c5.2,0,10.36-0.09,15.49-0.28
		c7.52-0.25,14.97-0.699,22.32-1.339c46.97-4.066,89.97-15.704,123.74-33.786c36.19-19.37,56.95-44.015,56.95-67.621
		s-20.76-48.261-56.95-67.631c-3.64-1.948-7.4-3.826-11.25-5.624c-5.51-2.577-11.22-4.995-17.13-7.253
		c-38.28-14.625-84.42-22.527-133.17-22.527c-2.826,0-5.641,0.036-8.45,0.09c45.476,0.897,88.368,8.7,124.325,22.437
		c5.91,2.258,11.62,4.675,17.13,7.253c3.85,1.798,7.61,3.676,11.25,5.624c36.19,19.37,56.95,44.025,56.95,67.631
		C474.5,279.61,453.74,304.255,417.55,323.625z"/>
	<path style="fill:#E3E3E3;" d="M24.795,256.004c0-71.905,106.619-130.475,239.853-132.915C261.776,123.036,258.896,123,256,123
		C118.76,123,7.5,182.549,7.5,256.004S118.76,388.998,256,388.998c2.896,0,5.776-0.036,8.648-0.089
		C131.414,386.47,24.795,327.909,24.795,256.004z"/>
</g>
<path style="fill:#8C8C8C;" d="M256,123c-5.038,0-10.036,0.09-15,0.248c130.254,4.152,233.5,61.997,233.5,132.756
	S371.254,384.598,241,388.75c4.964,0.158,9.962,0.248,15,0.248c137.24,0,248.5-59.539,248.5-132.994S393.24,123,256,123z"/>
<path style="fill:#CCCCCC;" d="M406.3,182.749c-31.4,54.305-88.36,139.108-112.49,174.662c-7.35,0.639-14.8,1.089-22.32,1.339
	c10.71-30.589,27.44-96.631-27.78-96.631c-53.69,0-102.62,48.59-123.95,73.185c-6.09-2.407-11.98-4.995-17.63-7.752
	c43.36-82.566,89.12-145.571,109.65-172.354c7.24-0.749,14.58-1.299,22-1.668c-12.38,31.448-23.2,81.077,31.8,81.077
	c54.76,0,100.15-36.043,123.59-59.11C395.08,177.754,400.79,180.172,406.3,182.749z"/>
<path style="fill:#E3E3E3;" d="M124.797,327.551c41.639-79.288,85.477-140.518,107.074-168.974c0.627-1.725,1.266-3.413,1.91-5.049
	c-7.42,0.37-14.76,0.919-22,1.668c-20.53,26.783-66.29,89.788-109.65,172.354c5.65,2.757,11.54,5.345,17.63,7.752
	c1.906-2.198,4.037-4.59,6.367-7.119C125.685,327.971,125.236,327.765,124.797,327.551z"/>
<path style="fill:#8C8C8C;" d="M389.17,175.496c-4.149,4.083-8.999,8.576-14.455,13.201
	c-27.502,46.771-71.145,112.553-97.619,151.851c-1.787,6.76-3.784,12.995-5.607,18.201c7.52-0.25,14.97-0.699,22.32-1.339
	c24.13-35.554,81.09-120.357,112.49-174.662C400.79,180.172,395.08,177.754,389.17,175.496z"/>
<path d="M351.072,371.233C320.977,378.046,288.99,381.5,256,381.5c-65.164,0-126.311-13.519-172.177-38.067
	C39.442,319.679,15,288.628,15,256c0-20.375,9.338-39.907,27.756-58.053c2.951-2.907,2.986-7.656,0.079-10.607
	c-2.907-2.951-7.656-2.986-10.606-0.079C11.145,208.035,0,231.804,0,256c0,38.423,27.255,74.17,76.745,100.658
	C124.75,382.35,188.41,396.5,256,396.5c34.103,0,67.204-3.579,98.383-10.637c4.04-0.915,6.574-4.931,5.659-8.971
	C359.127,372.852,355.112,370.321,351.072,371.233z"/>
<path d="M435.255,155.342C387.25,129.65,323.59,115.5,256,115.5c-75.798,0-147.15,18.063-195.76,49.558
	c-3.476,2.252-4.468,6.897-2.216,10.373c2.253,3.477,6.896,4.469,10.373,2.216C114.641,147.684,183.02,130.5,256,130.5
	c65.164,0,126.311,13.519,172.177,38.067C472.558,192.321,497,223.372,497,256c0,43.571-45.044,84.802-117.555,107.601
	c-3.952,1.243-6.147,5.453-4.905,9.404c1.007,3.203,3.964,5.253,7.153,5.253c0.745,0,1.503-0.112,2.251-0.347
	c37.742-11.867,69.476-28.923,91.771-49.323C499.453,306.868,512,281.767,512,256C512,217.577,484.745,181.83,435.255,155.342z"/>
<path d="M90.92,330.241c2.572,1.372,5.234,2.733,7.921,4.049c5.777,2.819,11.887,5.506,18.156,7.985
	C157.033,358.142,205.1,366.529,256,366.529c5.356,0,10.661-0.096,15.739-0.284c2.029-0.067,4.065-0.152,6.101-0.249
	c5.557-0.265,11.124-0.636,16.617-1.113c48.326-4.184,92.115-16.164,126.632-34.646C459.799,309.518,482,282.461,482,256.002
	c0-26.464-22.201-53.525-60.912-74.244c-3.727-1.994-7.635-3.948-11.61-5.805c-5.646-2.641-11.578-5.153-17.631-7.466
	c-39.42-15.06-86.396-23.021-135.847-23.021c-7.506,0-15.109,0.191-22.593,0.569c-7.658,0.381-15.194,0.953-22.388,1.698
	c-45.675,4.658-87.207,16.424-120.108,34.025C52.201,202.477,30,229.538,30,256.002C30,282.461,52.201,309.518,90.92,330.241z
	 M132.724,332.111c22.016-23.587,65.271-62.495,110.986-62.495c12.02,0,20.276,3.402,25.241,10.401
	c8.989,12.672,7.897,38.53-2.894,71.388c-3.305,0.079-6.666,0.122-10.056,0.122C211.244,351.528,168.902,344.823,132.724,332.111z
	 M467,256.002c0,20.748-19.314,42.985-52.99,61.01c-28.946,15.499-64.97,26.184-104.939,31.226
	c15.302-22.683,37.846-56.436,59.358-89.891c2.241-3.484,1.232-8.125-2.251-10.365c-3.485-2.242-8.125-1.233-10.365,2.251
	c-25.026,38.918-51.47,78.267-66.19,99.988c-0.24,0.019-0.479,0.039-0.719,0.058c-2.261,0.173-4.529,0.332-6.802,0.468
	c-0.03,0.002-0.059,0.003-0.089,0.005c13.742-44.834,7.37-67.856-0.828-79.413c-7.872-11.096-20.48-16.722-37.475-16.722
	c-24.97,0-51.357,9.669-78.429,28.739c-19.865,13.993-36.378,30.456-47.62,42.99c-0.335-0.141-0.664-0.286-0.998-0.428
	c-1.222-0.519-2.438-1.043-3.639-1.576c-0.192-0.085-0.38-0.172-0.571-0.258c39.925-74.809,80.911-132.307,103.304-161.737
	c0.271-0.026,0.539-0.053,0.811-0.078c1.838-0.17,3.694-0.33,5.568-0.477c0.24-0.019,0.475-0.041,0.716-0.059
	c-6.842,20.952-10.67,45.804,0.72,62.531c8.063,11.839,22.196,17.841,42.01,17.841c55.163,0,101-34.786,125.334-57.868
	c0.292,0.118,0.579,0.241,0.87,0.359c1.179,0.481,2.354,0.965,3.517,1.459c0.102,0.043,0.201,0.088,0.303,0.131
	c-5.991,10.155-13.049,21.731-21.052,34.529c-2.196,3.512-1.13,8.139,2.382,10.336c3.512,2.196,8.139,1.13,10.335-2.382
	c8.413-13.452,15.784-25.561,22.005-36.141c1.606,0.809,3.191,1.628,4.737,2.455C447.686,213.008,467,235.248,467,256.002z
	 M375.064,178.442c-23.609,21.115-63.269,48.662-109.484,48.662c-14.549,0-24.512-3.796-29.611-11.284
	c-7.194-10.563-6.078-29.996,3.073-55.018c5.645-0.22,11.329-0.335,16.958-0.335C298.928,160.467,339.792,166.672,375.064,178.442z
	 M97.988,194.984c27.002-14.446,60.32-24.753,97.169-30.16c-23.734,32.133-60.404,85.547-96.2,152.693
	c-0.32-0.169-0.651-0.336-0.968-0.505C64.314,298.987,45,276.751,45,256.002C45,235.248,64.314,213.008,97.988,194.984z"/>
<g>
</g>
<g>
</g>
<g>
</g>
<g>
</g>
<g>
</g>
<g>
</g>
<g>
</g>
<g>
</g>
<g>
</g>
<g>
</g>
<g>
</g>
<g>
</g>
<g>
</g>
<g>
</g>
<g>
</g>
</svg>
