<svg height="512" viewBox="0 0 60 60" width="512" xmlns="http://www.w3.org/2000/svg"><g id="002---No-Touching" fill="none" fill-rule="evenodd"><g id="Icons" transform="translate(1 1)"><g fill-rule="nonzero"><path id="Shape" d="m58 29c-.0004652 7.9495901-3.2642918 15.550451-9.0282593 21.0251804-5.7639675 5.4747293-13.5226503 8.3432641-21.4617407 7.9348196h-.02c-15.335-.395-27.49-13.45-27.49-28.96s12.155-28.565 27.49-28.96h.02c7.9390904-.40844447 15.6977732 2.46009026 21.4617407 7.93481964 5.7639675 5.47472936 9.0277941 13.07559026 9.0282593 21.02518036z" fill="#c81e1e"/><path id="Shape" d="m55 29c-.0003518 15.4291761-12.0817537 28.1566188-27.49 28.96h-.02c-15.335-.395-27.49-13.45-27.49-28.96s12.155-28.565 27.49-28.96h.02c15.4082463.80338124 27.4896482 13.5308239 27.49 28.96z" fill="#f44335"/><path id="Shape" d="m54 29c0 14.885-12.906 26.037-26.5 24.95-13.1983118-.7930491-23.49582523-11.7278837-23.49582523-24.95s10.29751343-24.15695086 23.49582523-24.95c13.629-1.09 26.5 10.091 26.5 24.95z" fill="#cfd8dc"/><ellipse id="Oval" cx="27.5" cy="29" fill="#f5f5f5" rx="23.5" ry="24.95"/><path id="Shape" d="m42 21.75v11.25c-.1762721 1.5766691-.570011 3.1213371-1.17 4.59l-1.85 6.63c-.31.34-.72.78-.98.78v2c0 1 0 2-1.25 2h-12.75c-1.0274213-.1671493-1.8328507-.9725787-2-2 0-1.1.144-2.283-1-3.32-1.3217239-1.1478209-2.5153405-2.4353174-3.56-3.84-.5924374-.8700708-1.1077297-1.7902356-1.54-2.75-1.67-3.71-4.69-8.59-6.23-10.03-.42631122-.2765191-.68027305-.7530015-.67214389-1.2610743.00812917-.5080728.27720454-.9761866.71214389-1.2389257.4603874-.3222899 1.0080246-.4966966 1.57-.5 1.63 0 4.9 3.07 6.49 5.33.3854007.5246577.8099458 1.0194031 1.27 1.48.4024767.5175444.9103665.9436264 1.49 1.25.2624005.1162599.5631744.1083447.8190969-.0215553.2559226-.1299001.4398551-.3680102.5009031-.6484447.2-1.6.15-.716.15-18.09.0294577-1.1429193.8706599-2.1018899 2-2.28.7247076-.1693139 1.487074.0008058 2.0710525.4621488s.9259294 1.1636341.9289475 1.9078512v-3.12c.0065718-.75203792.384702-1.45214039 1.01-1.87.7527385-.5535764 1.7509411-.64239857 2.5895961-.23042771.8386549.41197085 1.3784638 1.2563074 1.4004039 2.19042771v3.15c.0135557-.7340671.3924043-1.4129939 1.01-1.81.7477793-.5390293 1.730201-.6267538 2.5616527-.2287405.8314518.3980132 1.3792385 1.2182434 1.4283473 2.1387405v8.08c0-1.3807119 1.1192881-2.5 2.5-2.5s2.5 1.1192881 2.5 2.5z" fill="#607d8b"/></g><path id="Shape" d="m44.88 50.12-38-38 1.5-2.61 2.63-1.74 38.23 38.23c-1.5239872 1.296583-2.9792981 2.671785-4.36 4.12z" fill="#f44335"/></g><g id="Layer_2" fill="#000" fill-rule="nonzero"><path id="Shape" d="m48.513 46.687c.2000924.2016636.4765139.3087047.7602398.2943944s.5479743-.1486213.7267602-.3693944c8.5512908-10.339478 7.8510148-25.4828369-1.618-34.989-.3923789-.3789722-1.0160848-.3735524-1.4018186.0121814s-.3911536 1.0094397-.0121814 1.4018186c8.4451525 8.4794481 9.3675766 21.8793204 2.164 31.436l-6.132-6.132c.5217982-1.3970238.858002-2.8564848 1-4.341v-11.25c.0006823-1.1999147-.6149271-2.3160907-1.630165-2.9556905-1.0152378-.6395999-2.2878097-.7129782-3.369835-.1943095v-4.928c-.0327987-1.1817167-.6627635-2.2661284-1.6730642-2.8799871-1.0103008-.6138588-2.2630036-.6733559-3.3269358-.1580129.0585219-1.3645761-.6791808-2.63937799-1.8914561-3.26856884-1.2122754-.62919085-2.6793466-.49870286-3.7615439.33456884-.8454177.61569705-1.3459311 1.5981449-1.347 2.644-1.0611371-.5045751-2.3046559-.4430269-3.3107807.1638676-1.0061248.6068944-1.6405902 1.6781464-1.6892193 2.8521324v2.986l-6.481-6.481c6.8398009-5.15994326 15.9074803-6.2934508 23.807-2.976.5075497.21787631 1.0956236-.01695034 1.3135-.52450001.2178763-.50754968-.0169503-1.09562364-.5245-1.31349999-8.9570874-3.76507357-19.2653322-2.23022963-26.737 3.981-.2108677.1814397-.3366271.442516-.3470635.7205027-.0104364.2779868.0953937.5477575.2920635.7444973 4.653 4.654-9.315-9.315 35.19 35.19zm-14.013-33.044c.4358074-.3617436 1.0358-.4531398 1.5595497-.2375644s.8855613.7028502.9404503 1.2665644v15.328c0 .5522847.4477153 1 1 1s1-.4477153 1-1v-5.75c0-1.554-.106-2.008.437-2.563.429075-.4309804 1.0759115-.5602357 1.6376649-.3272494.5617533.2329863.9272375.7820999.9253351 1.3902494v11.25c-.1022298.9360459-.2999251 1.8591822-.59 2.755l-7.468-7.468c.086-.281.058.933.058-14.719.0112395-.3699919.19661-.7129273.5-.925zm-5.5-2.313c.0451769-.4685756.3077068-.8887637.7090279-1.1348235.4013212-.24605973.8948772-.28944638 1.3329721-.1171765.5784202.1897366.9664585.7333143.958 1.342v15.925l-3-3zm-5 3.03c.0448891-.4687568.3073018-.8892255.7086655-1.135508.4013638-.2462824.895086-.2897887 1.3333345-.117492.5783759.1903913.9662538.7341491.958 1.343v7.9l-3-3z"/><path id="Shape" d="m10.108 43.41c-5.46971136-8.0557985-5.49622807-18.6268623-.067-26.71l11.959 11.955c.0446105 1.1768087.0028317 2.3553046-.125 3.526-.4306222-.2622427-.8095462-.601173-1.118-1-.4244783-.4251977-.8162578-.8818281-1.172-1.366-1.409-2.006-5-5.756-7.305-5.756-2.735 0-4.466 2.706-2.293 4.731 1.421 1.328 4.393 6.138 6 9.7.4602482 1.0223452 1.0097074 2.0021361 1.642 2.928 2.671 3.721 4.371 3.801 4.371 5.538v1.044c.1768994 1.5777891 1.4222109 2.8231006 3 3h12.75c2.25 0 2.25-2.1 2.25-3v-1.345l3.3 3.3c-8.0843818 5.4299266-18.6569568 5.4034101-26.714-.067-.4570241-.2988293-1.0692628-.1757937-1.3753627.2763931-.3060998.4521867-.192871 1.0663147.2543627 1.3796069 9.1121306 6.1808841 21.1360968 5.9249782 29.977-.638.2372053-.1716777.3872481-.4386945.4105297-.7305807s-.0825373-.5793112-.2895297-.7864193c-5.762-5.762-25.263-25.252-34.96-34.96-.2071081-.2069924-.4945331-.3128113-.78641931-.2895297-.29188622.0232816-.558903.1733244-.73058069.4105297-6.56537649 8.8400817-6.82131515 20.8655881-.638 29.977.31329217.4472337.92742016.5604625 1.37960692.2543627.45218678-.3060999.57522238-.9183386.27639308-1.3753627zm27.892 2.59c.0569052.9918724.0401927 1.986599-.05 2.976-1.327 0 4.8.024-12.95.024-.4705516-.1599338-.8400662-.5294484-1-1v-1.044c-.0002437-1.1556033-.4913597-2.2567064-1.351-3.029-2.0618432-1.6922544-3.7152402-3.8279634-4.837-6.248-1.582-3.513-4.68-8.686-6.46-10.35-.16-.149-.414-.43-.329-.646.2817465-.4125934.7580451-.6486586 1.257-.623.951 0 3.928 2.425 5.668 4.906.4151745.5666406.8721136 1.1014632 1.367 1.6.4997376.6301849 1.1360754 1.1386397 1.861 1.487.5488313.2265121 1.1709833.1904973 1.690012-.0978303.5190286-.2883276.8783236-.7975203.975988-1.3831697.084-.67.132-1.291.153-1.924l14.5 14.5c-.3031803.1773575-.4910816.5007755-.495.852z"/><path id="Shape" d="m30 60c16.5685425 0 30-13.4314575 30-30s-13.4314575-30-30-30-30 13.4314575-30 30c.01873704 16.5607751 13.4392249 29.981263 30 30zm0-58c15.463973 0 28 12.536027 28 28s-12.536027 28-28 28-28-12.536027-28-28c.01763454-15.4566626 12.5433374-27.98236546 28-28z"/></g></g></svg>