<?xml version="1.0" encoding="UTF-8"?>
<svg xmlns="http://www.w3.org/2000/svg" xmlns:xlink="http://www.w3.org/1999/xlink" width="512" height="512" viewBox="0 0 52 60" version="1.1"><!-- Generator: Sketch 51.3 (57544) - http://www.bohemiancoding.com/sketch --><title>015 - Jerry Can</title><desc>Created with Sketch.</desc><defs/><g id="Page-1" stroke="none" stroke-width="1" fill="none" fill-rule="evenodd"><g id="015---Jerry-Can" fill-rule="nonzero"><path d="M34,6 L34,13 L30,13 L30,7 C29.9967052,5.89679813 29.1032019,5.0032948 28,5 L11,5 L11,1 L29,1 C30.3260824,1 31.597852,1.5267842 32.5355339,2.46446609 C33.4732158,3.40214799 34,4.67391755 34,6 Z" id="Shape" fill="#C81E1E"/><polygon id="Shape" fill="#C81E1E" points="47.17 16.9 43.54 20.54 37.812 17.688 36.46 13.46 40.1 9.83 45 12.188"/><path d="M47,24.83 L47,53 C46.9945136,56.1776258 44.5125248,58.799939 41.34,58.98 C41.2275029,58.9969181 41.1137047,59.0036122 41,59 L7,59 C3.6862915,59 1,56.3137085 1,53 L1,7 C0.998440819,4.99971355 1.99660355,3.1309728 3.66,2.02 C4.64516631,1.3513127 5.80933732,0.995787425 7,1 L13,1 L13,11 L34,11 L36.46,13.46 L43.54,20.54 L46.41,23.41 C46.7874773,23.7861733 46.9997587,24.2970877 47,24.83 Z" id="Shape" fill="#C81E1E"/><path d="M44,25.83 L44,54 C44.0015592,56.0002864 43.0033964,57.8690272 41.34,58.98 C41.2275029,58.9969181 41.1137047,59.0036122 41,59 L7,59 C3.6862915,59 1,56.3137085 1,53 L1,7 C0.998440819,4.99971355 1.99660355,3.1309728 3.66,2.02 C3.77249706,2.00308185 3.88629528,1.99638784 4,2 L13,1 L13,11 L31,12 L33.46,14.46 L40.54,21.54 L43.41,24.41 C43.7874773,24.7861733 43.9997587,25.2970877 44,25.83 Z" id="Shape" fill="#F44335"/><rect id="Rectangle-path" fill="#CFD8DC" transform="translate(45.050206, 11.950539) rotate(-44.999000) translate(-45.050206, -11.950539) " x="43.0492059" y="4.95003924" width="4.002" height="14.001" rx="0.997"/><path d="M19,28 L19,43 L12.44,49.56 C11.5413603,49.0210708 10.9939159,48.0478363 11,47 L11,23 C10.9999298,22.2044649 11.3165773,21.4416324 11.88,20.88 L19,28 Z" id="Shape" fill="#EF314C"/><path d="M36.12,20.88 L29,28 L19,28 L11.88,20.88 C12.4416324,20.3165773 13.2044649,19.9999298 14,20 L34,20 C34.7955351,19.9999298 35.5583676,20.3165773 36.12,20.88 Z" id="Shape" fill="#EF314C"/><path d="M37,23 L37,47 C37.0060841,48.0478363 36.4586397,49.0210708 35.56,49.56 L29,43 L29,28 L36.12,20.88 C36.6834227,21.4416324 37.0000702,22.2044649 37,23 Z" id="Shape" fill="#C81E1E"/><path d="M35.56,49.56 C35.091175,49.8492015 34.5508465,50.0016019 34,50 L14,50 C13.4491535,50.0016019 12.908825,49.8492015 12.44,49.56 L19,43 L29,43 L35.56,49.56 Z" id="Shape" fill="#C81E1E"/><rect id="Rectangle-path" fill="#C81E1E" x="19" y="28" width="10" height="15"/><rect id="Rectangle-path" fill="#F44335" x="19" y="28" width="7" height="15"/><path d="M41,60 L7,60 C3.13583434,59.9955914 0.00440863597,56.8641657 3.55271368e-15,53 L3.55271368e-15,7 C0.00440863597,3.13583434 3.13583434,0.00440863597 7,0 L13,0 C13.5522847,2.54085936e-16 14,0.44771525 14,1 C14,1.55228475 13.5522847,2 13,2 L7,2 C4.23994685,2.00330612 2.00330612,4.23994685 2,7 L2,53 C2.00330612,55.7600532 4.23994685,57.9966939 7,58 L41,58 C43.7600532,57.9966939 45.9966939,55.7600532 46,53 L46,24.829 C46.0002088,24.5634587 45.8947946,24.3087377 45.707,24.121 L33.293,11.707 C32.9140278,11.3146211 32.9194476,10.6909152 33.3051814,10.3051814 C33.6909152,9.91944763 34.3146211,9.91402779 34.707,10.293 L47.121,22.707 C47.6854873,23.2686565 48.0019768,24.032696 48,24.829 L48,53 C47.9955914,56.8641657 44.8641657,59.9955914 41,60 Z" id="Shape" fill="#000000"/><path d="M34,12 L13,12 C12.4477153,12 12,11.5522847 12,11 L12,1 C12,0.44771525 12.4477153,1.01453063e-16 13,0 L29,0 C32.3123376,0.00330737898 34.9966926,2.68766243 35,6 L35,11 C35,11.5522847 34.5522847,12 34,12 Z M14,10 L33,10 L33,6 C33,3.790861 31.209139,2 29,2 L14,2 L14,10 Z" id="Shape" fill="#000000"/><path d="M43.54,21.54 C43.2748052,21.5399434 43.0204927,21.4345494 42.833,21.247 L35.753,14.167 C35.565223,13.9794317 35.4597133,13.7249092 35.4597133,13.4595 C35.4597133,13.1940908 35.565223,12.9395683 35.753,12.752 L39.393,9.122 C39.7833851,8.73228406 40.4156149,8.73228406 40.806,9.122 L47.876,16.192 C48.2657159,16.5823851 48.2657159,17.2146149 47.876,17.605 L44.246,21.245 C44.0586711,21.4329162 43.8043384,21.5386783 43.539,21.539 L43.54,21.54 Z M37.875,13.461 L43.539,19.125 L45.757,16.9 L40.1,11.243 L37.875,13.461 Z" id="Shape" fill="#000000"/><path d="M48.586,18.9 C48.0555133,18.9013674 47.5464607,18.6907622 47.172,18.315 L38.687,9.828 C37.9062361,9.0470003 37.9062361,7.7809997 38.687,7 L40.1,5.586 C40.891167,4.83018603 42.136833,4.83018603 42.928,5.586 L51.413,14.071 C52.1937639,14.8519997 52.1937639,16.1180003 51.413,16.899 L50,18.313 C49.6258689,18.6894959 49.1167754,18.9008381 48.586,18.9 Z M41.515,7 L40.1,8.414 L48.587,16.9 L50,15.485 L41.515,7 Z" id="Shape" fill="#000000"/><path d="M30,12 C29.4477153,12 29,11.5522847 29,11 L29,7 C29,6.44771525 28.5522847,6 28,6 L13,6 C12.4477153,6 12,5.55228475 12,5 C12,4.44771525 12.4477153,4 13,4 L28,4 C29.6568542,4 31,5.34314575 31,7 L31,11 C31,11.5522847 30.5522847,12 30,12 Z" id="Shape" fill="#000000"/><path d="M34,51 L14,51 C11.790861,51 10,49.209139 10,47 L10,23 C10,20.790861 11.790861,19 14,19 L34,19 C36.209139,19 38,20.790861 38,23 L38,47 C38,49.209139 36.209139,51 34,51 Z M14,21 C12.8954305,21 12,21.8954305 12,23 L12,47 C12,48.1045695 12.8954305,49 14,49 L34,49 C35.1045695,49 36,48.1045695 36,47 L36,23 C36,21.8954305 35.1045695,21 34,21 L14,21 Z" id="Shape" fill="#000000"/><path d="M29,44 L19,44 C18.4477153,44 18,43.5522847 18,43 L18,28 C18,27.4477153 18.4477153,27 19,27 L29,27 C29.5522847,27 30,27.4477153 30,28 L30,43 C30,43.5522847 29.5522847,44 29,44 Z M20,42 L28,42 L28,29 L20,29 L20,42 Z" id="Shape" fill="#000000"/><path d="M19,29 C18.7348052,28.9999434 18.4804927,28.8945494 18.293,28.707 L11.173,21.587 C10.9130434,21.3359255 10.8087874,20.9641221 10.9003028,20.6144927 C10.9918183,20.2648632 11.2648632,19.9918183 11.6144927,19.9003028 C11.9641221,19.8087874 12.3359255,19.9130434 12.587,20.173 L19.707,27.293 C19.9929079,27.5789943 20.0784219,28.0090366 19.923678,28.3826546 C19.7689341,28.7562725 19.4043959,28.9999137 19,29 Z" id="Shape" fill="#000000"/><path d="M29,29 C28.5956041,28.9999137 28.2310659,28.7562725 28.076322,28.3826546 C27.9215781,28.0090366 28.0070921,27.5789943 28.293,27.293 L35.413,20.173 C35.8053789,19.7940278 36.4290848,19.7994476 36.8148186,20.1851814 C37.2005524,20.5709152 37.2059722,21.1946211 36.827,21.587 L29.707,28.707 C29.5195073,28.8945494 29.2651948,28.9999434 29,29 Z" id="Shape" fill="#000000"/><path d="M12.44,50.56 C12.0356041,50.5599137 11.6710659,50.3162725 11.516322,49.9426546 C11.3615781,49.5690366 11.4470921,49.1389943 11.733,48.853 L18.293,42.293 C18.6853789,41.9140278 19.3090848,41.9194476 19.6948186,42.3051814 C20.0805524,42.6909152 20.0859722,43.3146211 19.707,43.707 L13.147,50.267 C12.9595073,50.4545494 12.7051948,50.5599434 12.44,50.56 Z" id="Shape" fill="#000000"/><path d="M35.56,50.56 C35.2948052,50.5599434 35.0404927,50.4545494 34.853,50.267 L28.293,43.707 C27.9140278,43.3146211 27.9194476,42.6909152 28.3051814,42.3051814 C28.6909152,41.9194476 29.3146211,41.9140278 29.707,42.293 L36.267,48.853 C36.5529079,49.1389943 36.6384219,49.5690366 36.483678,49.9426546 C36.3289341,50.3162725 35.9643959,50.5599137 35.56,50.56 Z" id="Shape" fill="#000000"/><path d="M5,11 C4.44771525,11 4,10.5522847 4,10 L4,8 C4,7.44771525 4.44771525,7 5,7 C5.55228475,7 6,7.44771525 6,8 L6,10 C6,10.5522847 5.55228475,11 5,11 Z" id="Shape" fill="#000000"/><path d="M5,24 C4.44771525,24 4,23.5522847 4,23 L4,14 C4,13.4477153 4.44771525,13 5,13 C5.55228475,13 6,13.4477153 6,14 L6,23 C6,23.5522847 5.55228475,24 5,24 Z" id="Shape" fill="#000000"/></g></g></svg>
