<svg id="icons" enable-background="new 0 0 64 64" height="512" viewBox="0 0 64 64" width="512" xmlns="http://www.w3.org/2000/svg"><g><g><path d="m48 52v4l-3-4v-4z" fill="#aab2bd"/></g><g><path d="m26 44h12v4h-12z" fill="#ccd1d9"/></g><g><path d="m41 24v16l-3 4h-12l-3-4v-16c0-1.11.89-2 2-2h5 4 5c1.11 0 2 .89 2 2z" fill="#e6e9ed"/></g><g><path d="m63 24v24l-3 4h-12l-3-4v-24c0-1.11.89-2 2-2h5 4 5c1.11 0 2 .89 2 2z" fill="#e6e9ed"/></g><g><path d="m19 40v4l-3 4v-4z" fill="#aab2bd"/></g><g><path d="m26 44v4l-3-4v-4z" fill="#aab2bd"/></g><g><path d="m30 8h4v14h-4z" fill="#656d78"/></g><g><path d="m4 44h12v4h-12z" fill="#ccd1d9"/></g><g><path d="m48 52h12v4h-12z" fill="#ccd1d9"/></g><g><path d="m52 8h4v14h-4z" fill="#656d78"/></g><g><path d="m19 24v16l-3 4h-12l-3-4v-16c0-1.11.89-2 2-2h5 4 5c1.11 0 2 .89 2 2z" fill="#e6e9ed"/></g><g><path d="m63 48v4l-3 4v-4z" fill="#aab2bd"/></g><g><path d="m4 44v4l-3-4v-4z" fill="#aab2bd"/></g><g><path d="m41 40v4l-3 4v-4z" fill="#aab2bd"/></g><g><path d="m8 8h4v14h-4z" fill="#656d78"/></g></g><g><g><g><path d="m.997 24.996c-.553 0-1-.447-1-1 0-1.654 1.346-3 3-3 .553 0 1 .447 1 1s-.447 1-1 1c-.552 0-1 .448-1 1 0 .553-.447 1-1 1z"/></g><g><path d="m19.003 24.996c-.553 0-1-.447-1-1 0-.552-.448-1-1-1-.553 0-1-.447-1-1s.447-1 1-1c1.654 0 3 1.346 3 3 0 .553-.447 1-1 1z"/></g><g><path d="m17.003 22.996h-14.006c-.553 0-1-.447-1-1s.447-1 1-1h14.006c.553 0 1 .447 1 1s-.447 1-1 1z"/></g><g><path d="m19.003 40.996c-.553 0-1-.447-1-1v-16c0-.553.447-1 1-1s1 .447 1 1v16c0 .553-.447 1-1 1z"/></g><g><path d="m15.996 44.996c-.209 0-.42-.065-.6-.2-.441-.332-.53-.959-.199-1.4l3.006-4c.333-.442.959-.53 1.4-.199.441.332.53.959.199 1.4l-3.006 4c-.196.261-.496.399-.8.399z"/></g><g><path d="m.997 40.996c-.553 0-1-.447-1-1v-16c0-.553.447-1 1-1s1 .447 1 1v16c0 .553-.447 1-1 1z"/></g><g><path d="m4.004 44.996c-.304 0-.604-.138-.801-.399l-3.006-4c-.331-.441-.242-1.068.199-1.4.441-.33 1.067-.242 1.4.199l3.006 4c.331.441.242 1.068-.199 1.4-.179.135-.39.2-.599.2z"/></g><g><path d="m15.997 44.996h-11.994c-.553 0-1-.447-1-1s.447-1 1-1h11.994c.553 0 1 .447 1 1s-.447 1-1 1z"/></g><g><path d="m15.996 48.996c-.209 0-.42-.065-.6-.2-.441-.332-.53-.959-.199-1.4l3.006-4c.333-.442.959-.53 1.4-.199.441.332.53.959.199 1.4l-3.006 4c-.196.261-.496.399-.8.399z"/></g><g><path d="m4.004 48.996c-.304 0-.604-.138-.801-.399l-3.006-4c-.331-.441-.242-1.068.199-1.4.441-.33 1.067-.242 1.4.199l3.006 4c.331.441.242 1.068-.199 1.4-.179.135-.39.2-.599.2z"/></g><g><path d="m15.997 48.996h-11.994c-.553 0-1-.447-1-1s.447-1 1-1h11.994c.553 0 1 .447 1 1s-.447 1-1 1z"/></g><g><path d="m13.997 27.996h-8c-.553 0-1-.447-1-1s.447-1 1-1h8c.553 0 1 .447 1 1s-.447 1-1 1z"/></g><g><path d="m13.997 31.996h-8c-.553 0-1-.447-1-1s.447-1 1-1h8c.553 0 1 .447 1 1s-.447 1-1 1z"/></g><g><path d="m13.997 35.996h-8c-.553 0-1-.447-1-1s.447-1 1-1h8c.553 0 1 .447 1 1s-.447 1-1 1z"/></g><g><path d="m13.997 39.996h-8c-.553 0-1-.447-1-1s.447-1 1-1h8c.553 0 1 .447 1 1s-.447 1-1 1z"/></g><g><path d="m.997 44.996c-.553 0-1-.447-1-1v-4c0-.553.447-1 1-1s1 .447 1 1v4c0 .553-.447 1-1 1z"/></g><g><path d="m19.003 44.996c-.553 0-1-.447-1-1v-4c0-.553.447-1 1-1s1 .447 1 1v4c0 .553-.447 1-1 1z"/></g><g><path d="m15.997 48.996c-.553 0-1-.447-1-1v-4c0-.553.447-1 1-1s1 .447 1 1v4c0 .553-.447 1-1 1z"/></g><g><path d="m4.003 48.996c-.553 0-1-.447-1-1v-4c0-.553.447-1 1-1s1 .447 1 1v4c0 .553-.447 1-1 1z"/></g><g><path d="m7.998 22.996c-.553 0-1-.447-1-1v-14c0-.553.447-1 1-1s1 .447 1 1v14c0 .553-.447 1-1 1z"/></g><g><path d="m11.997 22.996c-.553 0-1-.447-1-1v-14c0-.553.447-1 1-1s1 .447 1 1v14c0 .553-.447 1-1 1z"/></g></g><g><g><path d="m22.997 24.996c-.553 0-1-.447-1-1 0-1.654 1.346-3 3-3 .553 0 1 .447 1 1s-.447 1-1 1c-.552 0-1 .448-1 1 0 .553-.447 1-1 1z"/></g><g><path d="m41.003 24.996c-.553 0-1-.447-1-1 0-.552-.448-1-1-1-.553 0-1-.447-1-1s.447-1 1-1c1.654 0 3 1.346 3 3 0 .553-.447 1-1 1z"/></g><g><path d="m39.003 22.996h-14.006c-.553 0-1-.447-1-1s.447-1 1-1h14.006c.553 0 1 .447 1 1s-.447 1-1 1z"/></g><g><path d="m41.003 40.996c-.553 0-1-.447-1-1v-16c0-.553.447-1 1-1s1 .447 1 1v16c0 .553-.447 1-1 1z"/></g><g><path d="m37.996 44.996c-.209 0-.42-.065-.6-.2-.441-.332-.53-.959-.199-1.4l3.006-4c.333-.442.96-.53 1.4-.199.441.332.53.959.199 1.4l-3.006 4c-.196.261-.496.399-.8.399z"/></g><g><path d="m22.997 40.996c-.553 0-1-.447-1-1v-16c0-.553.447-1 1-1s1 .447 1 1v16c0 .553-.447 1-1 1z"/></g><g><path d="m26.004 44.996c-.304 0-.604-.138-.801-.399l-3.006-4c-.331-.441-.242-1.068.199-1.4.441-.33 1.067-.242 1.4.199l3.006 4c.331.441.242 1.068-.199 1.4-.179.135-.39.2-.599.2z"/></g><g><path d="m37.997 44.996h-11.994c-.553 0-1-.447-1-1s.447-1 1-1h11.994c.553 0 1 .447 1 1s-.447 1-1 1z"/></g><g><path d="m37.996 48.996c-.209 0-.42-.065-.6-.2-.441-.332-.53-.959-.199-1.4l3.006-4c.333-.442.96-.53 1.4-.199.441.332.53.959.199 1.4l-3.006 4c-.196.261-.496.399-.8.399z"/></g><g><path d="m26.004 48.996c-.304 0-.604-.138-.801-.399l-3.006-4c-.331-.441-.242-1.068.199-1.4.441-.33 1.067-.242 1.4.199l3.006 4c.331.441.242 1.068-.199 1.4-.179.135-.39.2-.599.2z"/></g><g><path d="m37.997 48.996h-11.994c-.553 0-1-.447-1-1s.447-1 1-1h11.994c.553 0 1 .447 1 1s-.447 1-1 1z"/></g><g><path d="m35.997 27.996h-8c-.553 0-1-.447-1-1s.447-1 1-1h8c.553 0 1 .447 1 1s-.447 1-1 1z"/></g><g><path d="m35.997 31.996h-8c-.553 0-1-.447-1-1s.447-1 1-1h8c.553 0 1 .447 1 1s-.447 1-1 1z"/></g><g><path d="m35.997 35.996h-8c-.553 0-1-.447-1-1s.447-1 1-1h8c.553 0 1 .447 1 1s-.447 1-1 1z"/></g><g><path d="m35.997 39.996h-8c-.553 0-1-.447-1-1s.447-1 1-1h8c.553 0 1 .447 1 1s-.447 1-1 1z"/></g><g><path d="m22.997 44.996c-.553 0-1-.447-1-1v-4c0-.553.447-1 1-1s1 .447 1 1v4c0 .553-.447 1-1 1z"/></g><g><path d="m41.003 44.996c-.553 0-1-.447-1-1v-4c0-.553.447-1 1-1s1 .447 1 1v4c0 .553-.447 1-1 1z"/></g><g><path d="m37.997 48.996c-.553 0-1-.447-1-1v-4c0-.553.447-1 1-1s1 .447 1 1v4c0 .553-.447 1-1 1z"/></g><g><path d="m26.003 48.996c-.553 0-1-.447-1-1v-4c0-.553.447-1 1-1s1 .447 1 1v4c0 .553-.447 1-1 1z"/></g><g><path d="m29.998 22.996c-.553 0-1-.447-1-1v-14c0-.553.447-1 1-1s1 .447 1 1v14c0 .553-.447 1-1 1z"/></g><g><path d="m33.997 22.996c-.553 0-1-.447-1-1v-14c0-.553.447-1 1-1s1 .447 1 1v14c0 .553-.447 1-1 1z"/></g></g><g><path d="m44.997 24.996c-.553 0-1-.447-1-1 0-1.654 1.346-3 3-3 .553 0 1 .447 1 1s-.447 1-1 1c-.552 0-1 .448-1 1 0 .553-.447 1-1 1z"/></g><g><path d="m63.003 24.996c-.553 0-1-.447-1-1 0-.552-.448-1-1-1-.553 0-1-.447-1-1s.447-1 1-1c1.654 0 3 1.346 3 3 0 .553-.447 1-1 1z"/></g><g><path d="m61.003 22.996h-14.006c-.553 0-1-.447-1-1s.447-1 1-1h14.006c.553 0 1 .447 1 1s-.447 1-1 1z"/></g><g><path d="m63.003 49.004c-.553 0-1-.447-1-1v-24.008c0-.553.447-1 1-1s1 .447 1 1v24.008c0 .553-.447 1-1 1z"/></g><g><path d="m59.996 53.004c-.209 0-.42-.065-.6-.2-.441-.332-.53-.959-.199-1.4l3.006-4c.333-.441.96-.53 1.4-.199.441.332.53.959.199 1.4l-3.006 4c-.196.261-.496.399-.8.399z"/></g><g><path d="m44.997 49.004c-.553 0-1-.447-1-1v-24.008c0-.553.447-1 1-1s1 .447 1 1v24.008c0 .553-.447 1-1 1z"/></g><g><path d="m48.004 53.004c-.304 0-.604-.138-.801-.399l-3.006-4c-.331-.441-.242-1.068.199-1.4.442-.33 1.067-.242 1.4.199l3.006 4c.331.441.242 1.068-.199 1.4-.179.134-.39.2-.599.2z"/></g><g><path d="m59.997 53.004h-11.994c-.553 0-1-.447-1-1s.447-1 1-1h11.994c.553 0 1 .447 1 1s-.447 1-1 1z"/></g><g><path d="m59.996 57.004c-.209 0-.42-.065-.6-.2-.441-.332-.53-.959-.199-1.4l3.006-4c.333-.442.96-.53 1.4-.199.441.332.53.959.199 1.4l-3.006 4c-.196.261-.496.399-.8.399z"/></g><g><path d="m48.004 57.004c-.304 0-.604-.138-.801-.399l-3.006-4c-.331-.441-.242-1.068.199-1.4.442-.33 1.067-.242 1.4.199l3.006 4c.331.441.242 1.068-.199 1.4-.179.134-.39.2-.599.2z"/></g><g><path d="m59.997 57.004h-11.994c-.553 0-1-.447-1-1s.447-1 1-1h11.994c.553 0 1 .447 1 1s-.447 1-1 1z"/></g><g><path d="m57.997 27.996h-8c-.553 0-1-.447-1-1s.447-1 1-1h8c.553 0 1 .447 1 1s-.447 1-1 1z"/></g><g><path d="m57.997 31.996h-8c-.553 0-1-.447-1-1s.447-1 1-1h8c.553 0 1 .447 1 1s-.447 1-1 1z"/></g><g><path d="m57.997 35.996h-8c-.553 0-1-.447-1-1s.447-1 1-1h8c.553 0 1 .447 1 1s-.447 1-1 1z"/></g><g><path d="m57.997 39.996h-8c-.553 0-1-.447-1-1s.447-1 1-1h8c.553 0 1 .447 1 1s-.447 1-1 1z"/></g><g><path d="m57.997 43.996h-8c-.553 0-1-.447-1-1s.447-1 1-1h8c.553 0 1 .447 1 1s-.447 1-1 1z"/></g><g><path d="m57.997 48.004h-8c-.553 0-1-.447-1-1s.447-1 1-1h8c.553 0 1 .447 1 1s-.447 1-1 1z"/></g><g><path d="m44.997 53.004c-.553 0-1-.447-1-1v-4c0-.553.447-1 1-1s1 .447 1 1v4c0 .553-.447 1-1 1z"/></g><g><path d="m63.003 53.004c-.553 0-1-.447-1-1v-4c0-.553.447-1 1-1s1 .447 1 1v4c0 .553-.447 1-1 1z"/></g><g><path d="m59.997 57.004c-.553 0-1-.447-1-1v-4c0-.553.447-1 1-1s1 .447 1 1v4c0 .553-.447 1-1 1z"/></g><g><path d="m48.003 57.004c-.553 0-1-.447-1-1v-4c0-.553.447-1 1-1s1 .447 1 1v4c0 .553-.447 1-1 1z"/></g><g><path d="m51.998 22.996c-.553 0-1-.447-1-1v-14c0-.553.447-1 1-1s1 .447 1 1v14c0 .553-.447 1-1 1z"/></g><g><path d="m55.997 22.996c-.553 0-1-.447-1-1v-14c0-.553.447-1 1-1s1 .447 1 1v14c0 .553-.447 1-1 1z"/></g></g></svg>