<?xml version="1.0" encoding="iso-8859-1"?>
<!-- Generator: Adobe Illustrator 19.0.0, SVG Export Plug-In . SVG Version: 6.00 Build 0)  -->
<svg version="1.1" id="Capa_1" xmlns="http://www.w3.org/2000/svg" xmlns:xlink="http://www.w3.org/1999/xlink" x="0px" y="0px"
	 viewBox="0 0 512 512" style="enable-background:new 0 0 512 512;" xml:space="preserve">
<rect x="230.67" y="172.01" style="fill:#DAE9EC;" width="50.669" height="130.99"/>
<rect x="230.67" y="303" style="fill:#5796D1;" width="50.669" height="41.772"/>
<path style="fill:#828AA0;" d="M390.255,449.591h-7.893v-20.299c0-17.734-14.377-32.111-32.111-32.111H161.749
	c-17.734,0-32.111,14.377-32.111,32.111v20.299h-7.893c-17.734,0-32.111,14.376-32.111,32.111V502h332.731v-20.298
	C422.366,463.967,407.989,449.591,390.255,449.591z"/>
<path style="fill:#A9ADBF;" d="M342.358,397.181H169.643v-20.299c0-17.734,14.376-32.111,32.111-32.111h108.493
	c17.734,0,32.111,14.376,32.111,32.111V397.181z"/>
<path style="fill:#F15D43;" d="M278.25,10h-44.5c-21.952,0-39.748,17.796-39.748,39.748v43.264
	c0,17.368,11.139,32.133,26.662,37.543v41.454h70.671v-41.454c15.523-5.41,26.662-20.175,26.662-37.543V49.748
	C317.998,27.796,300.202,10,278.25,10z"/>
<path d="M347.649,459.59c-0.659,0-1.31-0.07-1.96-0.19c-0.64-0.13-1.27-0.33-1.87-0.58c-0.6-0.25-1.18-0.56-1.729-0.92
	c-0.54-0.36-1.05-0.78-1.521-1.24c-0.46-0.46-0.88-0.97-1.239-1.52c-0.36-0.54-0.67-1.12-0.92-1.72c-0.25-0.61-0.44-1.24-0.57-1.87
	c-0.13-0.65-0.2-1.31-0.2-1.96s0.07-1.31,0.2-1.95s0.32-1.27,0.57-1.87c0.25-0.61,0.56-1.19,0.92-1.73
	c0.359-0.55,0.779-1.06,1.239-1.52c0.471-0.46,0.98-0.88,1.521-1.24c0.55-0.36,1.13-0.67,1.729-0.92c0.601-0.25,1.23-0.44,1.87-0.57
	c1.29-0.26,2.62-0.26,3.91,0c0.641,0.13,1.27,0.32,1.87,0.57c0.6,0.25,1.18,0.56,1.73,0.92c0.54,0.36,1.05,0.78,1.52,1.24
	c0.46,0.46,0.88,0.97,1.24,1.52c0.359,0.54,0.67,1.12,0.92,1.73c0.25,0.6,0.439,1.23,0.57,1.87c0.13,0.64,0.189,1.3,0.189,1.95
	s-0.059,1.31-0.189,1.96c-0.131,0.63-0.32,1.26-0.57,1.87c-0.25,0.6-0.561,1.18-0.92,1.72c-0.36,0.55-0.78,1.06-1.24,1.52
	c-0.47,0.46-0.979,0.88-1.52,1.24c-0.551,0.36-1.131,0.67-1.73,0.92s-1.229,0.45-1.87,0.58
	C348.95,459.52,348.3,459.59,347.649,459.59z"/>
<path d="M392.361,439.643v-10.351c0-22.514-17.759-40.957-40.004-42.058v-10.351c0-23.22-18.891-42.111-42.11-42.111h-18.913
	V182.009h0.001c5.522,0,10-4.477,10-10v-34.918c16.198-8.487,26.663-25.4,26.663-44.079V49.748C327.998,22.317,305.682,0,278.25,0
	h-44.5c-27.432,0-49.748,22.317-49.748,49.748v43.264c0,18.679,10.465,35.592,26.663,44.079v34.918c0,5.523,4.478,10,10,10h0.001
	v152.763h-18.913c-23.22,0-42.11,18.891-42.11,42.111v10.351c-22.245,1.101-40.004,19.545-40.004,42.058v10.351
	c-22.246,1.1-40.004,19.544-40.004,42.059V502c0,5.523,4.477,10,10,10h332.73c5.522,0,10-4.477,10-10v-20.298
	C432.365,459.188,414.607,440.743,392.361,439.643z M204.002,93.012V49.748C204.002,33.345,217.347,20,233.75,20h44.5
	c16.403,0,29.748,13.345,29.748,29.748v43.264c0,12.648-8.018,23.94-19.954,28.1c-4.018,1.4-6.709,5.188-6.709,9.443v31.454h-50.67
	v-21.454h22.834c5.523,0,10-4.477,10-10c0-5.523-4.477-10-10-10h-30.834c-0.059,0-0.117,0.001-0.175,0.002
	C211.369,116.012,204.002,105.135,204.002,93.012z M271.334,182.009V293h-30.668V182.009H271.334z M240.666,313h30.668v21.772
	h-30.668L240.666,313L240.666,313z M201.753,354.772h108.494c12.191,0,22.11,9.919,22.11,22.111v10.298H179.643v-10.298
	C179.643,364.691,189.561,354.772,201.753,354.772z M412.365,492H99.635v-10.298c0-12.192,9.919-22.111,22.11-22.111h189.899
	c5.522,0,10-4.477,10-10s-4.478-10-10-10H139.639v-10.299c0-12.192,9.919-22.111,22.11-22.111l0,0c0.013,0-0.013,0,0,0h188.502
	c0.013,0-0.013,0,0,0l0,0c12.191,0,22.11,9.919,22.11,22.111v20.299c0,5.523,4.478,10,10,10h7.894
	c12.191,0,22.11,9.919,22.11,22.111L412.365,492L412.365,492z"/>
<g>
</g>
<g>
</g>
<g>
</g>
<g>
</g>
<g>
</g>
<g>
</g>
<g>
</g>
<g>
</g>
<g>
</g>
<g>
</g>
<g>
</g>
<g>
</g>
<g>
</g>
<g>
</g>
<g>
</g>
</svg>
